<?xml version="1.0" encoding="UTF-8" ?>
<!DOCTYPE svg PUBLIC "-//W3C//DTD SVG 1.1//EN" "http://www.w3.org/Graphics/SVG/1.1/DTD/svg11.dtd">
<svg width="256pt" height="256pt" viewBox="0 0 256 256" version="1.1" xmlns="http://www.w3.org/2000/svg">
<g id="#d41c1cff">
<path fill="#d41c1c" opacity="1.00" d=" M 127.09 1.98 C 134.30 2.78 141.21 5.29 148.28 6.88 C 148.34 10.91 148.31 14.95 148.30 18.99 C 159.41 21.98 170.61 24.61 181.72 27.59 C 181.90 23.52 181.90 19.45 181.85 15.38 C 191.86 17.75 201.91 20.23 211.81 22.91 C 212.18 39.28 211.92 55.66 212.00 72.03 C 211.89 82.70 212.39 93.41 211.27 104.05 C 208.40 133.75 196.91 162.75 177.76 185.73 C 167.21 198.29 154.69 209.32 140.36 217.36 C 137.03 219.34 133.18 220.56 130.51 223.50 C 129.36 223.36 128.01 223.58 127.14 222.65 C 127.50 222.37 128.23 221.82 128.60 221.54 C 129.23 210.84 128.43 200.08 129.08 189.37 C 130.99 186.88 132.74 184.27 134.43 181.63 C 134.47 181.57 134.55 181.45 134.59 181.38 C 137.05 176.77 141.51 172.54 141.04 166.94 C 141.18 146.50 141.10 126.06 141.11 105.62 C 146.71 105.52 152.31 105.67 157.91 105.59 C 159.17 105.70 159.91 104.45 160.77 103.75 C 167.70 96.58 174.92 89.70 181.79 82.46 C 164.13 82.52 146.48 82.40 128.83 82.37 C 129.03 79.24 128.92 76.11 128.67 72.99 C 132.32 73.26 135.97 73.17 139.62 73.19 C 139.91 65.94 139.81 58.67 139.67 51.41 C 136.01 51.34 132.34 51.35 128.68 51.36 C 128.70 48.15 128.66 44.94 128.68 41.72 C 128.93 28.98 129.04 16.19 128.58 3.46 C 128.28 3.16 127.67 2.55 127.37 2.25 L 127.09 1.98 Z" />
</g>
<g id="#f52b2bff">
<path fill="#f52b2b" opacity="1.00" d=" M 110.24 6.87 C 115.87 5.03 121.70 3.93 127.37 2.25 C 127.67 2.55 128.28 3.16 128.58 3.46 C 129.04 16.19 128.93 28.98 128.68 41.72 C 125.16 45.25 121.59 48.72 118.02 52.19 C 117.98 59.18 118.00 66.17 118.01 73.16 C 121.56 73.09 125.12 72.79 128.67 72.99 C 128.92 76.11 129.03 79.24 128.83 82.37 L 128.81 82.66 C 111.79 82.77 94.77 82.56 77.75 82.80 C 85.09 90.58 92.79 97.99 100.29 105.61 C 106.21 105.52 112.13 105.57 118.06 105.57 C 118.11 126.40 117.96 147.24 118.18 168.07 C 117.93 171.27 120.23 173.78 121.68 176.40 C 123.83 179.55 125.45 183.15 128.37 185.70 C 128.59 186.92 128.86 188.13 129.08 189.37 C 128.43 200.08 129.23 210.84 128.60 221.54 C 128.23 221.82 127.50 222.37 127.14 222.65 C 123.06 220.03 118.63 218.03 114.57 215.37 C 76.95 191.88 51.86 150.05 47.63 106.03 C 46.64 96.41 47.11 86.72 47.00 77.07 C 47.08 58.87 46.83 40.66 47.13 22.47 C 57.31 20.28 67.29 17.15 77.49 15.12 C 77.59 19.10 77.61 23.07 77.68 27.05 C 88.52 24.54 99.27 21.64 110.04 18.86 C 110.04 14.86 109.90 10.86 110.24 6.87 Z" />
</g>
<g id="#cececeff">
<path fill="#cecece" opacity="1.00" d=" M 128.68 51.56 C 132.29 51.56 135.91 51.57 139.53 51.58 C 139.64 58.78 139.47 65.99 139.62 73.19 C 135.97 73.17 132.32 73.26 128.67 72.99 C 128.70 65.85 128.69 58.71 128.68 51.56 Z" />
<path fill="#cecece" opacity="1.00" d=" M 128.83 82.37 C 146.48 82.40 164.13 82.52 181.79 82.46 C 174.92 89.70 167.70 96.58 160.77 103.75 C 159.91 104.45 159.17 105.70 157.91 105.59 C 152.31 105.67 146.71 105.52 141.11 105.62 C 141.10 126.06 141.18 146.50 141.04 166.94 C 141.51 172.54 137.05 176.77 134.59 181.38 C 134.55 181.45 134.47 181.57 134.43 181.63 C 132.74 184.27 130.99 186.88 129.08 189.37 C 128.86 188.13 128.59 186.92 128.37 185.70 C 129.22 151.36 128.37 117.00 128.81 82.66 L 128.83 82.37 Z" />
</g>
<g id="#a67d7dcc">
<path fill="#a67d7d" opacity="0.80" d=" M 134.43 181.63 C 134.47 181.57 134.55 181.45 134.59 181.38 C 134.55 181.45 134.47 181.57 134.43 181.63 Z" />
</g>
<g id="#ff9900ff">
<path fill="#ff9900" opacity="1.00" d=" M 193.99 208.87 C 201.46 207.09 209.60 206.42 216.99 208.86 C 220.26 209.61 219.52 213.50 219.41 216.01 C 218.15 225.16 214.49 234.33 207.63 240.72 C 206.80 241.78 205.45 241.79 204.24 241.68 C 206.15 233.42 211.50 225.60 210.32 216.79 C 207.48 214.32 203.46 214.51 199.93 214.50 C 194.73 214.39 189.62 215.69 184.42 215.61 C 184.27 215.26 183.98 214.55 183.84 214.20 C 186.72 211.61 190.39 210.17 193.99 208.87 Z" />
<path fill="#ff9900" opacity="1.00" d=" M 30.61 212.93 C 30.93 209.99 34.12 211.25 35.64 212.39 C 52.19 221.87 70.44 228.08 88.96 232.25 C 116.68 237.71 145.66 237.31 173.05 230.12 C 179.93 228.02 186.93 226.18 193.61 223.46 C 196.39 222.43 199.25 220.54 202.30 221.76 C 202.69 223.29 203.23 225.45 201.39 226.26 C 183.23 239.42 161.14 246.33 139.04 248.93 C 100.02 253.06 59.19 240.00 30.61 212.93 Z" />
</g>
</svg>
